<svg xmlns="http://www.w3.org/2000/svg" viewBox="0 0 953.37 1266.27"><defs><style>.cls-1{fill:#17c7ff;}</style></defs><title>Asset 1</title><g id="Layer_2" data-name="Layer 2"><g id="Layer_1-2" data-name="Layer 1"><path d="M191.2,1151.84C133.08,1085.79,75,1017.11,38,935.21,1,848-9.58,747.64,8.91,652.53S69.68,467.6,130.44,391c-5.28,66.05,18.49,134.74,63.4,184.93-26.42-126.81,15.85-264.18,100.39-364.57S495,44.91,616.53,0c-60.76,63.4-68.68,163.79-44.91,248.33s74,158.51,118.89,235.13,87.18,155.86,89.82,243c23.78-44.91,50.2-89.82,66-140s23.77-103,10.56-153.23c47.56,58.12,74,116.24,87.19,190.21S954.69,774.06,946.77,848c-10.57,81.9-31.7,166.43-76.61,235.12-52.84,81.9-137.38,140-229.84,171.72C476.52,1283.93,315.37,1260.15,191.2,1151.84Z"/><path class="cls-1" d="M391.32,1209.68C608,1294.22,821.94,1038,703.05,839.83c0-2.65-2.64-2.65-2.64-5.29,10.57,108.32-15.85,187.57-66,232.48,26.42-63.4,7.93-137.37-23.77-200.78C578.88,805.48,534,750,499.63,691.88c-34.34-60.76-60.76-129.45-44.91-198.13-63.4,47.55-108.31,118.88-126.81,195.49S320,850.39,354.33,921.72c-39.63-29.06-68.69-76.61-71.33-126.8C240.73,845.11,214.31,911.15,217,977.2,217,1080.23,298.85,1172.7,391.32,1209.68Z"/></g></g></svg>