<svg xmlns="http://www.w3.org/2000/svg" viewBox="0 0 818 749"><defs><style>.cls-1,.cls-2{fill:#17c7ff;}.cls-2,.cls-3,.cls-4,.cls-5{stroke:#000;stroke-miterlimit:10;}.cls-2,.cls-3,.cls-4{stroke-width:8px;}.cls-3{fill:#ff1649;}.cls-4{fill:#ff1664;}.cls-5{fill:none;stroke-width:15px;}</style></defs><title>Asset 5</title><g id="Layer_2" data-name="Layer 2"><g id="Layer_1-2" data-name="Layer 1"><ellipse class="cls-1" cx="694.53" cy="352.47" rx="57.78" ry="62.6"/><path d="M694.53,293.88c29.66,0,53.78,26.28,53.78,58.59s-24.12,58.6-53.78,58.6-53.78-26.29-53.78-58.6,24.12-58.59,53.78-58.59m0-8c-34.12,0-61.78,29.81-61.78,66.59s27.66,66.6,61.78,66.6,61.78-29.82,61.78-66.6-27.66-66.59-61.78-66.59Z"/><path class="cls-2" d="M773.61,525.26q-4,3.12-8.27,5.93a133,133,0,0,1-146.34,0q-3.9-2.58-7.61-5.42C630.71,461.14,659.91,420,692.58,420S754.29,460.93,773.61,525.26Z"/><ellipse class="cls-1" cx="575.06" cy="384.91" rx="73.97" ry="80.04"/><path d="M575.06,308.87c38.58,0,70,34.12,70,76s-31.39,76-70,76-70-34.11-70-76,31.39-76,70-76m0-8c-43.06,0-78,37.63-78,84s34.91,84,78,84,78-37.62,78-84-34.91-84-78-84Z"/><path class="cls-2" d="M674.86,603q-5.07,3.93-10.44,7.47a167.81,167.81,0,0,1-184.68,0c-3.27-2.16-6.48-4.45-9.6-6.83,24.38-81.56,61.23-133.52,102.46-133.52S650.47,521.78,674.86,603Z"/><ellipse class="cls-1" cx="134.53" cy="352.47" rx="57.78" ry="62.6"/><path d="M134.53,293.88c29.66,0,53.78,26.28,53.78,58.59s-24.12,58.6-53.78,58.6-53.78-26.29-53.78-58.6,24.12-58.59,53.78-58.59m0-8c-34.12,0-61.78,29.81-61.78,66.59s27.66,66.6,61.78,66.6,61.78-29.82,61.78-66.6-27.66-66.59-61.78-66.59Z"/><path class="cls-2" d="M213.61,525.26q-4,3.12-8.27,5.93a133,133,0,0,1-146.34,0q-3.9-2.58-7.61-5.42C70.71,461.14,99.91,420,132.58,420S194.29,460.93,213.61,525.26Z"/><ellipse class="cls-1" cx="235.06" cy="384.91" rx="73.97" ry="80.04"/><path d="M235.06,308.87c38.58,0,70,34.12,70,76s-31.39,76-70,76-70-34.11-70-76,31.39-76,70-76m0-8c-43.06,0-78,37.63-78,84s34.91,84,78,84,78-37.62,78-84-34.91-84-78-84Z"/><path class="cls-2" d="M334.86,603q-5.07,3.93-10.44,7.47a167.81,167.81,0,0,1-184.68,0c-3.27-2.16-6.48-4.45-9.6-6.83,24.38-81.56,61.23-133.52,102.46-133.52S310.47,521.78,334.86,603Z"/><ellipse class="cls-1" cx="416.12" cy="374.8" rx="106.33" ry="114.92"/><path d="M416.12,263.88c56.43,0,102.34,49.76,102.34,110.92S472.55,485.72,416.12,485.72,313.79,436,313.79,374.8,359.7,263.88,416.12,263.88m0-8c-60.93,0-110.33,53.24-110.33,118.92s49.4,118.92,110.33,118.92S526.46,440.48,526.46,374.8s-49.4-118.92-110.34-118.92Z"/><path class="cls-2" d="M557.35,683.37q-7.17,5.57-14.77,10.58a237.49,237.49,0,0,1-261.34,0q-7-4.61-13.59-9.67c34.5-115.42,86.65-188.95,145-188.95S522.84,568.48,557.35,683.37Z"/><path class="cls-3" d="M736.6,173.72a26.91,26.91,0,0,0-20-8.7,25.14,25.14,0,0,0-15.71,5.42,32.41,32.41,0,0,0-6.36,6.63,32.11,32.11,0,0,0-6.35-6.63A25.14,25.14,0,0,0,672.47,165a26.89,26.89,0,0,0-20,8.7,31.25,31.25,0,0,0-7.94,21.35c0,8.46,3.16,16.2,9.92,24.36,6.06,7.31,14.76,14.72,24.83,23.31,3.44,2.93,7.34,6.25,11.39,9.79a5.88,5.88,0,0,0,7.73,0c4.05-3.54,8-6.86,11.39-9.8,10.07-8.58,18.77-16,24.83-23.3,6.76-8.16,9.91-15.9,9.91-24.36A31.24,31.24,0,0,0,736.6,173.72Z"/><path d="M184.5,218.88a9.27,9.27,0,0,0-2.71-6.56,10.38,10.38,0,0,0,2.66-8,10.76,10.76,0,0,0-10.86-9.44H147.85c1.28-3.87,3.32-11,3.32-16.67,0-9-7.68-16.67-12.5-16.67a13.06,13.06,0,0,0-7.55,2.54,2.09,2.09,0,0,0-.79,1.63v14.13l-12,26-.5.25v-.8a2.08,2.08,0,0,0-2.08-2.08H94.92A10.43,10.43,0,0,0,84.5,213.67V247a10.43,10.43,0,0,0,10.42,10.42h12.5a10.44,10.44,0,0,0,9.8-6.89,27.21,27.21,0,0,0,11,2.72H166.5a9.6,9.6,0,0,0,9.44-7.27,9.42,9.42,0,0,0-.75-6.27,9.36,9.36,0,0,0,4.17-12.5A9.34,9.34,0,0,0,184.5,218.88ZM175.71,224a2.08,2.08,0,0,0-1.19,3.58,5.16,5.16,0,0,1-3,8.92,2.09,2.09,0,0,0-1.74,1.41,2.07,2.07,0,0,0,.55,2.17,5.17,5.17,0,0,1,1.51,5,5.39,5.39,0,0,1-5.37,4H128.25c-3.38,0-9.06-1.58-11-3.55a2.08,2.08,0,0,0-3.56,1.47,6.26,6.26,0,0,1-6.25,6.25H94.92A6.25,6.25,0,0,1,88.67,247V213.67a6.25,6.25,0,0,1,6.25-6.25h18.75v2.08a2.1,2.1,0,0,0,1,1.78,2.13,2.13,0,0,0,2,.08l4.17-2.08a2.1,2.1,0,0,0,1-1l12.5-27.08a2.25,2.25,0,0,0,.19-.88V166.88a8.79,8.79,0,0,1,4.17-1.13c2.28,0,8.33,5.68,8.33,12.5,0,7.33-4,17.9-4,18a2.08,2.08,0,0,0,1.95,2.82h28.67a6.58,6.58,0,0,1,6.71,5.67,6.21,6.21,0,0,1-3,5.89,2.09,2.09,0,0,0,.14,3.63,5.16,5.16,0,0,1-1.77,9.75Z"/><path d="M115.4,207.93a2.1,2.1,0,0,0-2.09,2.09v37.5a2.09,2.09,0,0,0,4.17,0V210A2.09,2.09,0,0,0,115.4,207.93Z"/><path d="M106.14,205.18a2.32,2.32,0,0,0-2.09,2.49v44.92a2.12,2.12,0,1,0,4.17,0V207.67A2.32,2.32,0,0,0,106.14,205.18Z"/><path d="M95,205.18A2.32,2.32,0,0,0,93,207.67v44.92a2.11,2.11,0,1,0,4.16,0V207.67A2.32,2.32,0,0,0,95,205.18Z"/><line x1="84.5" y1="229.45" x2="118.35" y2="229.45"/><path d="M278.71,206.64a12.82,12.82,0,1,1-12.82-12.82A12.82,12.82,0,0,1,278.71,206.64Z"/><path d="M265.89,222.41a15.78,15.78,0,1,1,15.78-15.77A15.8,15.8,0,0,1,265.89,222.41Zm0-25.63a9.86,9.86,0,1,0,9.86,9.86A9.86,9.86,0,0,0,265.89,196.78Z"/><path d="M278.71,269.73a12.82,12.82,0,1,1-12.82-12.82A12.82,12.82,0,0,1,278.71,269.73Z"/><path d="M265.89,285.5a15.78,15.78,0,1,1,15.78-15.77A15.79,15.79,0,0,1,265.89,285.5Zm0-25.63a9.86,9.86,0,1,0,9.86,9.86A9.86,9.86,0,0,0,265.89,259.87Z"/><path d="M223.5,238.18a12.82,12.82,0,1,1-12.81-12.81A12.81,12.81,0,0,1,223.5,238.18Z"/><path d="M210.69,254a15.77,15.77,0,1,1,15.77-15.77A15.78,15.78,0,0,1,210.69,254Zm0-25.63a9.86,9.86,0,1,0,9.86,9.86A9.87,9.87,0,0,0,210.69,228.32Z"/><path d="M220,236.29a3.94,3.94,0,0,1-2-7.37l36.59-20.86a3.94,3.94,0,0,1,3.91,6.85L222,235.77A4,4,0,0,1,220,236.29Z"/><path d="M256.58,268.82a3.9,3.9,0,0,1-1.94-.52l-36.59-20.86a3.94,3.94,0,1,1,3.9-6.85l36.59,20.86a3.94,3.94,0,0,1-2,7.37Z"/><path class="cls-4" d="M479.63,110.83a40.32,40.32,0,0,0-30-13.06,37.73,37.73,0,0,0-23.57,8.14,48.35,48.35,0,0,0-9.53,10,47.83,47.83,0,0,0-9.53-10,37.7,37.7,0,0,0-23.56-8.14,40.35,40.35,0,0,0-30,13.06c-7.67,8.33-11.9,19.7-11.9,32,0,12.69,4.73,24.3,14.88,36.55,9.08,10.95,22.13,22.08,37.24,34.95,5.16,4.4,11,9.39,17.09,14.7a8.79,8.79,0,0,0,11.59,0c6.07-5.31,11.93-10.3,17.09-14.7,15.11-12.88,28.16-24,37.24-34.95,10.15-12.25,14.87-23.86,14.87-36.55C491.53,130.53,487.31,119.16,479.63,110.83Z"/><path d="M625.41,243.88a9.24,9.24,0,0,0-2.72-6.56,10.35,10.35,0,0,0,2.67-8,10.77,10.77,0,0,0-10.87-9.44H588.76c1.27-3.87,3.31-11,3.31-16.67,0-9-7.68-16.67-12.5-16.67a13.1,13.1,0,0,0-7.55,2.54,2.11,2.11,0,0,0-.78,1.63v14.13l-12,26-.5.25v-.8a2.08,2.08,0,0,0-2.08-2.08H535.82a10.42,10.42,0,0,0-10.41,10.42V272a10.42,10.42,0,0,0,10.41,10.42h12.5a10.45,10.45,0,0,0,9.81-6.89,27.18,27.18,0,0,0,11,2.72H607.4a9.58,9.58,0,0,0,9.44-7.27,9.42,9.42,0,0,0-.75-6.27,9.35,9.35,0,0,0,4.18-12.5A9.34,9.34,0,0,0,625.41,243.88ZM616.62,249a2.09,2.09,0,0,0-1.74,1.41,2.07,2.07,0,0,0,.55,2.17,5.17,5.17,0,0,1-3,8.92,2.08,2.08,0,0,0-1.19,3.58,5.14,5.14,0,0,1,1.5,5,5.38,5.38,0,0,1-5.37,4H569.16c-3.39,0-9.06-1.58-11-3.55a2.09,2.09,0,0,0-3.56,1.47,6.25,6.25,0,0,1-6.25,6.25h-12.5a6.26,6.26,0,0,1-6.25-6.25V238.67a6.26,6.26,0,0,1,6.25-6.25h18.75v2.08a2.08,2.08,0,0,0,3,1.86l4.17-2.08a2.1,2.1,0,0,0,1-1l12.5-27.08a2.25,2.25,0,0,0,.19-.88V191.88a8.74,8.74,0,0,1,4.16-1.13c2.29,0,8.34,5.68,8.34,12.5,0,7.33-4,17.9-4,18a2.08,2.08,0,0,0,1.94,2.82h28.67a6.58,6.58,0,0,1,6.72,5.67,6.21,6.21,0,0,1-3,5.89,2.09,2.09,0,0,0,.15,3.63,5.16,5.16,0,0,1-1.77,9.75Z"/><path d="M556.3,232.93a2.09,2.09,0,0,0-2.08,2.09v37.5a2.09,2.09,0,0,0,4.17,0V235A2.1,2.1,0,0,0,556.3,232.93Z"/><path d="M547,230.18a2.32,2.32,0,0,0-2.08,2.49v44.92a2.12,2.12,0,1,0,4.17,0V232.67A2.32,2.32,0,0,0,547,230.18Z"/><path d="M536,230.18a2.32,2.32,0,0,0-2.08,2.49v44.92a2.11,2.11,0,1,0,4.16,0V232.67A2.32,2.32,0,0,0,536,230.18Z"/><line x1="525.41" y1="254.45" x2="559.26" y2="254.45"/><ellipse class="cls-5" cx="409" cy="374.5" rx="401.5" ry="367"/></g></g></svg>