<svg xmlns="http://www.w3.org/2000/svg" viewBox="0 0 1723.13 803"><defs><style>.cls-1{fill:#15c7ff;}.cls-1,.cls-2{stroke:#000;stroke-miterlimit:10;stroke-width:4px;}.cls-2{fill:#fff;}</style></defs><title>Asset 2</title><g id="Layer_2" data-name="Layer 2"><g id="Layer_1-2" data-name="Layer 1"><rect x="349.91" y="1.9" width="95" height="799.99" transform="translate(117.56 -89.16) rotate(15)"/><rect x="208.13" y="678" width="133" height="123"/><rect x="101.91" y="1.9" width="95" height="799.99" transform="translate(-98.93 52.36) rotate(-15)"/><rect x="629.13" y="202" width="95" height="599"/><circle class="cls-1" cx="676.63" cy="83.5" r="80.5"/><polyline class="cls-2" points="725.54 83.25 646.73 37.75 647.13 38 647.13 129 646.73 129.25 725.54 83.75"/><path d="M1063.52,368c-104.93,0-190,96.26-190,215s85.07,215,190,215,190-96.26,190-215S1168.46,368,1063.52,368Zm0,340c-61,0-110.46-56-110.46-125s49.46-125,110.46-125S1174,514,1174,583,1124.53,708,1063.52,708Z"/><rect x="873.53" width="83.95" height="798"/><rect x="1343.13" width="90.25" height="798"/><rect x="1485.63" y="-142.5" width="95" height="380" transform="translate(1485.63 1580.63) rotate(-90)"/><rect x="1485.63" y="177.5" width="95" height="380" transform="translate(1165.63 1900.63) rotate(-90)"/><rect x="1485.63" y="565.5" width="95" height="380" transform="translate(777.63 2288.63) rotate(-90)"/></g></g></svg>